<svg version="1.1" id="Layer_1" xmlns="http://www.w3.org/2000/svg" xmlns:xlink="http://www.w3.org/1999/xlink" x="0px" y="0px"
	 width="100%" viewBox="0 0 520 431" enable-background="new 0 0 520 431" xml:space="preserve">
<path fill="#FFFFFF" opacity="1.000000" stroke="none" 
	d="
M288.000000,432.000000 
	C192.025101,432.000000 96.550194,432.000000 1.037646,432.000000 
	C1.037646,288.396179 1.037646,144.792374 1.037646,1.094278 
	C174.224884,1.094278 347.449860,1.094278 520.837402,1.094278 
	C520.837402,144.666519 520.837402,288.333252 520.837402,432.000000 
	C443.459076,432.000000 365.979523,432.000000 288.000000,432.000000 
M193.194946,256.041534 
	C191.446243,256.164185 189.697556,256.286835 187.948853,256.409485 
	C187.980042,256.901001 188.011230,257.392548 188.042419,257.884064 
	C190.043839,257.884064 192.045258,257.884064 194.628525,258.674805 
	C194.732437,265.009766 194.836334,271.344727 194.940247,277.679688 
	C195.639664,277.669891 196.339096,277.660065 197.038513,277.650238 
	C197.347946,271.073608 197.657379,264.496979 198.834427,257.986786 
	C200.532837,257.986786 202.231247,257.986786 203.929657,257.986786 
	C203.906815,257.408813 203.883987,256.830841 203.861145,256.252869 
	C201.891449,256.252869 199.921753,256.252869 197.176041,256.137054 
	C196.132767,256.175232 195.089493,256.213409 193.194946,256.041534 
M267.006012,265.260437 
	C267.135590,264.574066 267.265167,263.887726 267.566101,262.293701 
	C270.406860,267.769348 272.821472,272.423615 275.558716,277.699799 
	C276.978790,274.512665 278.116760,271.958588 279.254761,269.404541 
	C278.854523,269.138519 278.454254,268.872498 278.053986,268.606476 
	C277.523682,269.742065 276.993347,270.877655 276.209717,272.555634 
	C272.808716,266.375183 270.041107,261.345764 266.595947,255.085037 
	C266.005066,259.798676 265.617615,262.889587 264.976990,266.747650 
	C264.564636,270.319153 264.152252,273.890686 263.739899,277.462189 
	C264.375183,277.542694 265.010468,277.623230 265.645752,277.703735 
	C266.038818,273.797150 266.431885,269.890564 267.006012,265.260437 
M157.553192,262.375397 
	C157.034073,263.909515 156.514954,265.443634 155.770721,267.568634 
	C156.613907,268.114807 157.536133,269.221375 158.287354,269.115448 
	C162.877808,268.468018 165.739609,269.945251 166.919907,274.691345 
	C167.225250,275.919159 168.888870,276.809174 169.928574,277.854370 
	C170.274536,277.498230 170.620499,277.142059 170.966461,276.785919 
	C167.941071,269.800903 164.915680,262.815887 161.542206,255.027191 
	C160.105957,257.933716 159.110474,259.948273 157.553192,262.375397 
M294.635681,267.694733 
	C293.730011,270.806976 292.824341,273.919189 292.091858,276.436279 
	C291.827576,276.729523 292.109314,276.532715 292.231354,276.263519 
	C293.419525,273.642609 292.284363,269.697540 296.971130,269.135498 
	C301.796844,268.556824 304.850433,269.857239 305.958435,274.956573 
	C306.210266,276.115601 307.846252,276.973877 308.845154,277.970581 
	C309.222626,277.632843 309.600128,277.295074 309.977631,276.957306 
	C306.941681,269.916351 303.905731,262.875397 300.547455,255.086975 
	C299.112885,257.879395 298.079773,259.890350 297.004303,262.625519 
	C296.332916,264.065308 295.661560,265.505127 294.635681,267.694733 
M322.537689,266.050537 
	C324.029602,264.199585 326.577362,262.393616 326.658813,260.482574 
	C326.717407,259.106323 323.690155,256.892761 321.676239,256.312195 
	C319.142914,255.581879 316.239227,256.136169 313.585144,256.136169 
	C312.353699,270.607697 312.935638,276.131042 316.197083,277.469238 
	C316.197083,274.064636 316.197083,270.859772 316.197083,267.654907 
	C318.845276,269.194000 320.324524,271.308563 322.095642,273.141052 
	C323.798401,274.902832 324.441650,278.569641 328.702393,277.113251 
	C327.289246,275.308655 325.931030,273.863312 324.919159,272.206482 
	C323.738892,270.273956 322.861328,268.156555 321.773132,266.137421 
	C321.773132,266.137421 321.768280,266.218628 322.537689,266.050537 
M211.308136,256.731964 
	C206.304565,258.730957 204.482010,262.651367 204.701035,267.763000 
	C204.887817,272.121857 206.827087,275.497223 210.995865,276.951630 
	C212.698532,277.545654 214.858597,277.297485 216.701736,276.912048 
	C219.594299,276.307220 223.025772,276.001129 225.093369,274.237274 
	C228.630951,271.219360 229.026520,266.656128 227.305634,262.353271 
	C226.065659,259.252838 224.201202,256.407684 219.870743,256.316650 
	C217.073517,254.117966 214.443954,254.113480 211.308136,256.731964 
M255.916458,215.055725 
	C257.568451,213.705322 259.220428,212.354919 261.941345,210.130722 
	C264.738342,213.340454 267.539795,216.588989 270.379120,219.804123 
	C273.224640,223.026291 276.779510,223.754211 280.813599,222.640274 
	C294.909241,218.748047 309.062927,215.046936 323.054230,210.809906 
	C326.329315,209.818115 329.091949,207.060562 332.017426,205.011292 
	C334.323944,203.395584 336.272919,200.844223 338.803162,200.043549 
	C353.215668,195.482849 367.744202,191.285858 382.257782,187.049271 
	C386.564240,185.792206 390.278320,184.055435 392.120728,179.504135 
	C392.586456,178.353683 394.197937,177.674561 395.265411,176.758484 
	C397.088470,175.194077 398.911011,173.628586 400.708954,172.035522 
	C402.460114,170.483856 404.479187,169.118042 405.842560,167.273041 
	C407.808472,164.612656 409.288330,161.593094 410.975586,158.726807 
	C408.532898,157.800186 406.093750,156.076828 403.647034,156.066086 
	C365.018616,155.896469 326.388824,155.872009 287.760803,156.080673 
	C284.458466,156.098511 281.166290,158.002609 277.260162,159.024399 
	C276.834229,159.620239 276.408295,160.216080 275.467712,161.415085 
	C274.755585,164.309769 273.327881,165.754089 269.931946,165.565918 
	C263.791016,165.225677 257.615753,165.550400 251.459503,165.402924 
	C250.183807,165.372375 248.072617,164.780914 247.797318,163.960876 
	C245.301208,156.525497 239.467102,155.896805 232.937088,155.909851 
	C194.979630,155.985687 157.021957,155.944824 119.064354,155.954178 
	C117.404251,155.954590 115.649826,155.738144 114.105392,156.190140 
	C111.554344,156.936768 109.601990,159.012802 111.683418,161.375122 
	C116.407608,166.736816 121.635208,171.657227 126.704147,176.710907 
	C127.692543,177.696320 129.433365,178.251083 129.895081,179.384247 
	C131.820160,184.108994 135.686035,185.847763 140.171982,187.145569 
	C154.693512,191.346649 169.187088,195.647049 183.647537,200.053268 
	C185.596909,200.647247 188.181335,201.630264 188.945221,203.183746 
	C191.359787,208.094101 195.543564,209.940826 200.293137,211.254944 
	C213.424240,214.888092 226.594208,218.388535 239.667343,222.219467 
	C244.434189,223.616348 248.474792,223.270248 252.471619,219.338898 
	C253.243591,217.718369 254.015579,216.097824 255.916458,215.055725 
M364.386261,262.099670 
	C362.424927,260.016357 360.463593,257.933014 357.941101,255.253632 
	C357.941101,263.465240 357.941101,270.475861 357.941101,277.486450 
	C358.390991,277.496613 358.840851,277.506775 359.290741,277.516937 
	C359.290741,272.387054 359.290741,267.257172 359.290741,260.688232 
	C365.140442,267.140381 369.936646,272.430542 375.269440,278.312561 
	C375.269440,270.212280 375.269440,263.231232 375.269440,256.250183 
	C374.738953,256.243744 374.208466,256.237305 373.677979,256.230896 
	C373.677979,260.789276 373.677979,265.347626 373.677979,269.906006 
	C373.150482,270.084106 372.622986,270.262177 372.095490,270.440277 
	C369.692322,267.833557 367.289124,265.226807 364.386261,262.099670 
M232.213425,273.943481 
	C232.416260,275.125458 232.619110,276.307434 232.821945,277.489410 
	C233.396545,277.435150 233.971146,277.380859 234.545746,277.326569 
	C234.545746,272.563507 234.545746,267.800476 234.545746,263.037415 
	C234.997650,262.912109 235.449554,262.786804 235.901443,262.661499 
	C240.470001,267.672516 245.038559,272.683502 250.067719,278.199738 
	C250.067719,270.212463 250.067719,263.250610 250.067719,256.288727 
	C249.603790,256.284943 249.139862,256.281158 248.675934,256.277344 
	C248.675934,261.194794 248.675934,266.112244 248.675934,272.187531 
	C242.942200,266.081146 238.157913,260.985870 233.373611,255.890625 
	C232.986908,256.049744 232.600204,256.208862 232.213501,256.367981 
	C232.213501,261.932739 232.213501,267.497498 232.213425,273.943481 
M185.949219,270.673065 
	C185.609467,266.370605 181.579788,266.275116 179.066132,264.363434 
	C177.710831,263.332703 177.325958,261.025879 176.503250,259.294800 
	C178.507706,258.959778 180.503876,258.537537 182.521957,258.346313 
	C183.080780,258.293335 183.704666,258.926727 185.590073,259.937592 
	C184.547043,257.884338 184.367645,256.830475 183.772354,256.476990 
	C180.695587,254.650040 175.598480,256.063354 174.124252,259.006989 
	C172.489456,262.271240 174.034592,265.167389 177.937073,267.362061 
	C179.907166,268.469971 182.107437,270.139648 182.855240,272.076080 
	C183.285431,273.190063 181.021744,275.344360 180.124115,276.784271 
	C183.863937,277.041901 184.266815,276.716095 185.949219,270.673065 
M286.268646,260.257721 
	C286.112122,259.025177 285.955566,257.792603 285.628174,255.214844 
	C283.069366,259.809052 281.128937,263.292969 279.188507,266.776886 
	C279.481689,266.968964 279.774872,267.161041 280.068085,267.353119 
	C281.195618,265.969360 282.323151,264.585602 283.520905,263.115692 
	C285.325562,268.002502 283.493195,273.546967 286.483215,277.677277 
	C287.080811,277.533356 287.678406,277.389404 288.276031,277.245453 
	C287.639252,271.855225 287.002502,266.464996 286.268646,260.257721 
M350.522675,277.595184 
	C350.830566,270.668091 351.159485,263.741577 351.360474,256.811371 
	C351.367584,256.564758 350.108673,256.281372 348.193665,255.519089 
	C348.748383,263.482788 349.239990,270.540894 350.522675,277.595184 
M337.289764,277.572449 
	C337.528992,272.405853 337.709381,267.235443 338.041626,262.074829 
	C338.147644,260.428101 338.656647,258.807312 338.970459,257.228882 
	C337.607056,257.228882 336.021393,257.228882 335.016815,257.228882 
	C335.342529,258.752228 335.842285,260.141632 335.904877,261.550446 
	C336.146149,266.979431 336.247620,272.414642 337.289764,277.572449 
z"/>
<path fill="#1D1D1D" opacity="1.000000" stroke="none" 
	d="
M277.869415,159.030457 
	C281.166290,158.002609 284.458466,156.098511 287.760803,156.080673 
	C326.388824,155.872009 365.018616,155.896469 403.647034,156.066086 
	C406.093750,156.076828 408.532898,157.800186 410.975586,158.726807 
	C409.288330,161.593094 407.808472,164.612656 405.842560,167.273041 
	C404.479187,169.118042 402.460114,170.483856 400.708954,172.035522 
	C398.911011,173.628586 397.088470,175.194077 395.265411,176.758484 
	C394.197937,177.674561 392.586456,178.353683 392.120728,179.504135 
	C390.278320,184.055435 386.564240,185.792206 382.257782,187.049271 
	C367.744202,191.285858 353.215668,195.482849 338.803162,200.043549 
	C336.272919,200.844223 334.323944,203.395584 332.017426,205.011292 
	C329.091949,207.060562 326.329315,209.818115 323.054230,210.809906 
	C309.062927,215.046936 294.909241,218.748047 280.813599,222.640274 
	C276.779510,223.754211 273.224640,223.026291 270.379120,219.804123 
	C267.539795,216.588989 264.738342,213.340454 261.941345,210.130722 
	C259.220428,212.354919 257.568451,213.705322 255.571381,214.174194 
	C255.573151,212.627991 255.919983,211.963318 256.421112,211.002975 
	C254.185577,210.807541 252.284836,210.641373 250.256577,210.464050 
	C249.323227,213.437271 248.500168,216.059113 247.446716,218.839233 
	C247.638367,219.205078 248.060410,219.412659 248.875931,219.349731 
	C250.200012,219.292953 251.130630,219.506653 252.061249,219.720352 
	C248.474792,223.270248 244.434189,223.616348 239.667343,222.219467 
	C226.594208,218.388535 213.424240,214.888092 200.293137,211.254944 
	C195.543564,209.940826 191.359787,208.094101 188.945221,203.183746 
	C188.181335,201.630264 185.596909,200.647247 183.647537,200.053268 
	C169.187088,195.647049 154.693512,191.346649 140.171982,187.145569 
	C135.686035,185.847763 131.820160,184.108994 129.895081,179.384247 
	C129.433365,178.251083 127.692543,177.696320 126.704147,176.710907 
	C121.635208,171.657227 116.407608,166.736816 111.683418,161.375122 
	C109.601990,159.012802 111.554344,156.936768 114.105392,156.190140 
	C115.649826,155.738144 117.404251,155.954590 119.064354,155.954178 
	C157.021957,155.944824 194.979630,155.985687 232.937088,155.909851 
	C239.467102,155.896805 245.301208,156.525497 247.797318,163.960876 
	C248.072617,164.780914 250.183807,165.372375 251.459503,165.402924 
	C257.615753,165.550400 263.791016,165.225677 269.931946,165.565918 
	C273.327881,165.754089 274.755585,164.309769 276.137512,161.257187 
	C276.899872,162.488297 276.992432,163.877319 277.104126,165.553146 
	C294.245880,165.553146 311.225677,165.248764 328.184448,165.713745 
	C334.347046,165.882736 338.066284,163.959137 339.879395,159.030441 
	C319.325104,159.030441 298.597260,159.030441 277.869415,159.030457 
M239.434341,187.596176 
	C239.283401,187.230179 239.132462,186.864182 238.242004,186.340103 
	C231.904495,189.916702 225.566986,193.493286 219.229477,197.069870 
	C219.408569,197.746994 219.587662,198.424133 219.766754,199.101273 
	C222.512268,199.730453 225.257767,200.359650 228.120560,201.496017 
	C228.155411,201.666000 228.190262,201.835983 228.311035,202.744339 
	C230.343002,203.428925 232.337326,204.300507 234.422592,204.720444 
	C235.489990,204.935425 237.352615,204.735245 237.777084,204.052246 
	C241.291107,198.397980 244.552628,192.586777 247.890549,186.823059 
	C247.564209,186.439804 247.237869,186.056534 246.911530,185.673279 
	C245.052475,186.682770 242.936279,187.400528 241.389420,188.764145 
	C238.423904,191.378372 235.781708,194.359344 232.332367,197.091202 
	C231.880280,197.063202 231.428207,197.035202 231.036011,196.324860 
	C233.687546,193.468246 236.339096,190.611633 239.434341,187.596176 
M285.499969,184.156097 
	C297.247528,184.156097 308.995087,184.156097 320.740295,184.156097 
	C320.740295,178.380981 320.740295,173.155106 320.740295,168.029877 
	C280.741425,168.029877 241.059021,168.029877 201.367645,168.029877 
	C201.367645,173.532410 201.367645,178.754517 201.367645,184.155716 
	C229.286972,184.155716 256.893463,184.155716 285.499969,184.156097 
M128.509125,158.086395 
	C123.434235,158.554550 118.158745,157.086899 113.154236,158.967041 
	C114.633202,164.430618 117.730629,165.742676 122.618530,165.668091 
	C141.268356,165.383469 159.925125,165.553329 178.579300,165.553436 
	C180.088791,165.553436 181.598282,165.553436 183.684464,165.553436 
	C180.830170,160.003464 177.322891,157.916061 171.976532,158.005920 
	C157.823349,158.243774 143.663513,158.086456 128.509125,158.086395 
M402.710907,165.549957 
	C407.123291,165.590286 407.579498,162.081421 409.078094,158.796799 
	C407.529938,158.501816 406.444000,158.116440 405.357330,158.114380 
	C386.248901,158.078140 367.140320,158.062088 348.031921,158.108139 
	C343.344482,158.119446 340.711670,160.954224 338.588379,165.552734 
	C360.082458,165.552734 380.964752,165.552734 402.710907,165.549957 
M197.554779,165.553299 
	C213.460022,165.553299 229.365250,165.553299 245.501053,165.553299 
	C244.530823,160.210709 241.326172,158.230438 237.221649,158.195267 
	C218.806808,158.037521 200.389832,158.126587 181.831024,158.126587 
	C184.245239,163.850082 187.891357,166.851379 194.086548,165.575653 
	C194.885345,165.411163 195.747253,165.553131 197.554779,165.553299 
M174.466110,167.770966 
	C157.075546,167.770966 139.684967,167.770966 122.101768,167.770966 
	C123.455101,173.081009 126.188271,174.693573 131.294830,174.270157 
	C148.538437,172.840347 165.824738,171.927094 183.092178,170.778381 
	C184.108505,170.710770 185.102615,170.309128 187.055847,169.830368 
	C182.919571,166.501343 178.975479,168.327225 174.466110,167.770966 
M339.847137,170.846497 
	C356.959839,171.956146 374.089691,172.862091 391.175079,174.296783 
	C396.456573,174.740280 398.699097,172.667480 399.916473,167.773651 
	C379.589600,167.773651 359.613708,167.745972 339.638397,167.838593 
	C338.364990,167.844482 337.095886,168.783569 335.824799,169.288513 
	C335.930756,169.656555 336.036713,170.024582 336.142670,170.392624 
	C337.072479,170.528244 338.002289,170.663879 339.847137,170.846497 
M158.129318,174.656906 
	C149.261230,175.234650 140.393158,175.812393 131.478149,176.393204 
	C132.440903,181.710800 135.388855,182.693954 139.886551,181.977448 
	C149.244141,180.486771 158.659302,179.356949 168.051544,178.084457 
	C175.233536,177.111420 182.416672,176.147049 189.599304,175.178818 
	C189.564880,174.483185 189.530457,173.787567 189.496033,173.091934 
	C179.349152,172.495056 169.204300,174.188934 158.129318,174.656906 
M388.691223,176.201416 
	C370.028625,175.464066 351.422394,173.027344 332.650665,173.913254 
	C333.937012,175.192978 335.294922,175.630463 336.686829,175.825562 
	C343.918579,176.839203 351.156372,177.810974 358.397064,178.759277 
	C367.119141,179.901611 375.833069,181.127533 384.576935,182.072983 
	C388.704346,182.519272 390.612671,180.023315 388.691223,176.201416 
M184.522171,178.081970 
	C169.796402,180.067001 155.070633,182.052032 139.847397,184.104126 
	C147.679459,187.872528 150.876816,188.393539 157.915665,186.952301 
	C169.626236,184.554504 181.322617,182.087280 193.024963,179.649292 
	C192.987167,179.098297 192.949371,178.547287 192.911560,177.996292 
	C190.399139,177.996292 187.886703,177.996292 184.522171,178.081970 
M334.952759,177.820312 
	C333.009094,177.943390 331.065460,178.066452 329.121796,178.189529 
	C329.200165,178.701492 329.278503,179.213455 329.356873,179.725418 
	C340.711731,182.098999 352.167206,184.084274 363.384125,186.990280 
	C370.222595,188.761963 375.980591,186.606934 383.455322,184.234055 
	C366.611359,181.998917 351.199921,179.953873 334.952759,177.820312 
M330.638214,202.835281 
	C330.352539,201.862778 330.361847,200.359711 329.730591,200.008698 
	C326.848938,198.406357 323.784790,197.133011 320.791077,195.731140 
	C313.816772,192.465240 313.131470,192.615082 307.736359,198.690887 
	C310.963043,201.018707 314.170563,203.355728 317.402130,205.658936 
	C322.991455,209.642517 325.761963,209.168076 330.638214,202.835281 
M208.450394,202.962402 
	C210.483841,201.447891 212.517303,199.933395 214.433868,198.505951 
	C210.190887,192.927277 205.602478,192.630295 200.192459,196.104980 
	C197.310104,197.956207 193.982498,199.114243 190.865204,200.580750 
	C193.540192,208.552124 198.371490,210.176117 205.039932,205.412964 
	C205.982559,204.739670 206.914093,204.050797 208.450394,202.962402 
M336.685547,188.879715 
	C339.848145,189.885681 343.105713,190.665237 346.153809,191.944138 
	C352.768616,194.719513 358.388214,191.714355 365.318909,189.445984 
	C352.946045,186.857803 341.754974,184.405884 330.504486,182.266495 
	C328.498444,181.885040 326.246002,182.799408 324.107300,183.115448 
	C324.129425,183.661484 324.151520,184.207520 324.173615,184.753555 
	C328.090027,186.051544 332.006439,187.349533 336.685547,188.879715 
M162.385406,191.323669 
	C165.292267,191.911713 168.455292,193.540451 171.059586,192.899368 
	C180.116562,190.669922 188.979813,187.653488 197.916733,184.936340 
	C197.889252,184.323074 197.861755,183.709808 197.834274,183.096542 
	C195.818771,182.772400 193.690536,181.859650 191.806229,182.220520 
	C180.383453,184.408218 169.016342,186.886520 156.726349,189.456848 
	C158.893921,190.187698 160.264633,190.649872 162.385406,191.323669 
M186.626633,198.448944 
	C192.785629,196.361633 198.944626,194.274323 205.103638,192.187012 
	C205.150757,191.515732 205.197876,190.844437 205.244995,190.173157 
	C202.734970,189.164886 199.914688,186.865768 197.770874,187.381073 
	C190.177292,189.206329 182.814835,191.993210 174.116714,194.821472 
	C178.833832,196.188461 182.312347,197.196518 186.626633,198.448944 
M338.723022,197.602737 
	C341.441559,196.738876 344.160095,195.875015 347.774017,194.726639 
	C340.416595,192.342194 334.031097,190.579559 327.892609,188.184082 
	C323.173584,186.342545 319.700806,186.811630 317.195648,191.557724 
	C320.328522,193.031158 323.341034,194.894241 326.617767,195.869781 
	C330.251740,196.951614 334.127045,197.222870 338.723022,197.602737 
M255.779205,208.674210 
	C257.152252,208.594803 258.525269,208.515381 259.766541,208.443588 
	C259.766541,200.717712 259.766541,193.635895 259.766541,186.530685 
	C255.983597,187.024673 253.596802,193.070755 251.127182,208.077789 
	C252.392548,208.262863 253.656006,208.447662 255.779205,208.674210 
M262.116669,188.228485 
	C262.116669,194.990097 262.116669,201.751724 262.116669,208.915207 
	C265.585327,208.624786 268.313446,208.396378 271.372589,208.140259 
	C269.518555,201.309906 267.762573,195.085251 266.159882,188.821396 
	C265.476868,186.151886 264.393860,185.369766 262.116669,188.228485 
M252.959015,191.494858 
	C253.319534,189.939041 253.680054,188.383240 254.061035,186.739136 
	C250.159348,186.817657 244.166412,195.153397 239.762985,206.298752 
	C242.658661,206.880325 245.468506,207.444656 248.436920,208.040817 
	C249.983871,202.456299 251.392654,197.370590 252.959015,191.494858 
M277.135254,196.368774 
	C271.660645,186.812561 271.660645,186.812561 267.876587,186.709961 
	C269.785156,193.800064 271.657104,200.754211 273.631927,208.090378 
	C276.776001,207.410110 279.604279,206.798172 282.485321,206.174820 
	C282.225159,205.364990 282.175079,205.020721 282.014740,204.739273 
	C280.537079,202.145615 279.040314,199.562790 277.135254,196.368774 
M276.589478,190.997238 
	C278.247620,193.848755 279.903412,196.701614 281.564301,199.551514 
	C285.658142,206.576111 285.867096,206.624191 292.952087,202.214645 
	C285.535614,191.702454 278.861847,186.163651 274.250854,186.938934 
	C274.919128,188.136887 275.551971,189.271301 276.589478,190.997238 
M307.934326,212.342575 
	C311.446960,211.552582 314.959625,210.762604 319.316101,209.782837 
	C315.644592,207.127029 312.685150,205.467072 310.333832,203.181473 
	C305.956177,198.926285 302.102112,199.870056 297.699402,203.852966 
	C300.954468,206.683273 304.059387,209.383041 307.934326,212.342575 
M206.031006,207.371735 
	C205.202591,208.087769 204.374176,208.803802 203.422760,209.626144 
	C215.151260,213.736908 216.516083,213.300293 223.857773,203.299011 
	C219.674866,199.713608 215.612946,198.973236 211.437164,203.451096 
	C210.101089,204.883789 208.237701,205.824707 206.031006,207.371735 
M291.881348,215.633759 
	C296.026642,215.237869 300.171936,214.841995 305.132263,214.368271 
	C295.306122,204.037155 295.306122,204.037155 286.170502,207.924515 
	C287.948608,210.391754 289.652618,212.756180 291.881348,215.633759 
M231.675461,214.080032 
	C233.030792,211.964554 234.386124,209.849091 235.817184,207.615417 
	C232.355118,206.374191 229.570160,205.375748 227.420624,204.605103 
	C223.995956,207.724899 220.863449,210.578552 217.489014,213.652618 
	C220.001450,214.398438 222.031631,215.048264 224.088211,215.599518 
	C226.569382,216.264572 229.184753,217.647079 231.675461,214.080032 
M247.676987,210.476013 
	C237.978348,207.765961 237.978348,207.765961 232.213318,217.608459 
	C244.637405,221.791946 244.637405,221.791946 247.676987,210.476013 
M284.554688,219.218658 
	C286.368164,218.697021 288.181671,218.175400 290.103058,217.622726 
	C283.534821,208.075989 283.534821,208.075989 274.581787,210.357986 
	C276.103180,219.891907 277.298584,221.081741 284.554688,219.218658 
M282.601471,186.410965 
	C285.678741,190.007919 288.970306,193.446426 291.777710,197.242935 
	C295.096497,201.730988 298.386475,201.797836 302.574860,197.749374 
	C298.332275,194.692108 294.316284,191.548264 290.033752,188.823273 
	C288.055298,187.564362 285.556427,187.123291 282.601471,186.410965 
M224.756210,191.257156 
	C226.679718,189.891266 228.603226,188.525375 230.976227,186.840302 
	C222.518433,184.804459 216.392975,188.237473 210.020828,191.799637 
	C216.559799,197.168045 216.559677,197.167877 222.590958,192.856781 
	C223.127563,192.473221 223.667664,192.094559 224.756210,191.257156 
M309.314148,194.070419 
	C310.192444,193.392761 311.070740,192.715118 312.201141,191.842987 
	C305.605194,188.217575 299.457520,184.779282 291.164795,186.822800 
	C295.032288,189.617538 298.611511,191.915207 301.840424,194.629547 
	C304.375671,196.760742 306.455841,196.666840 309.314148,194.070419 
M271.063141,217.438492 
	C272.095093,218.307571 273.127045,219.176636 275.307953,221.013290 
	C273.787628,216.497757 272.771118,213.478592 271.725922,210.374207 
	C269.377136,210.656357 267.404877,210.893265 264.258087,211.271286 
	C266.925476,213.668350 268.742920,215.301636 271.063141,217.438492 
M209.764175,189.357895 
	C211.326263,188.648102 212.888351,187.938309 214.450424,187.228516 
	C214.354141,186.890427 214.257874,186.552353 214.161591,186.214264 
	C212.596420,186.214264 211.031235,186.214279 209.466064,186.214279 
	C207.732193,186.214279 205.998322,186.214264 204.264450,186.214264 
	C204.143951,186.688538 204.023453,187.162796 203.902969,187.637070 
	C205.641144,188.339981 207.379318,189.042892 209.764175,189.357895 
M315.098572,186.214279 
	C312.697571,186.214279 310.296600,186.214279 307.895599,186.214279 
	C309.609344,188.102905 311.557770,189.599274 313.618073,189.773636 
	C314.943237,189.885788 316.432892,188.054230 317.848816,187.093872 
	C317.206696,186.800568 316.564545,186.507263 315.098572,186.214279 
z"/>
<path fill="#ECECEC" opacity="1.000000" stroke="none" 
	d="
M277.564789,159.027420 
	C298.597260,159.030441 319.325104,159.030441 339.879395,159.030441 
	C338.066284,163.959137 334.347046,165.882736 328.184448,165.713745 
	C311.225677,165.248764 294.245880,165.553146 277.104126,165.553146 
	C276.992432,163.877319 276.899872,162.488297 276.394836,160.955597 
	C276.408295,160.216080 276.834229,159.620239 277.564789,159.027420 
z"/>
<path fill="#2A2A2A" opacity="1.000000" stroke="none" 
	d="
M364.636108,262.359863 
	C367.289124,265.226807 369.692322,267.833557 372.095490,270.440277 
	C372.622986,270.262177 373.150482,270.084106 373.677979,269.906006 
	C373.677979,265.347626 373.677979,260.789276 373.677979,256.230896 
	C374.208466,256.237305 374.738953,256.243744 375.269440,256.250183 
	C375.269440,263.231232 375.269440,270.212280 375.269440,278.312561 
	C369.936646,272.430542 365.140442,267.140381 359.290741,260.688232 
	C359.290741,267.257172 359.290741,272.387054 359.290741,277.516937 
	C358.840851,277.506775 358.390991,277.496613 357.941101,277.486450 
	C357.941101,270.475861 357.941101,263.465240 357.941101,255.253632 
	C360.463593,257.933014 362.424927,260.016357 364.636108,262.359863 
z"/>
<path fill="#2D2D2D" opacity="1.000000" stroke="none" 
	d="
M232.213470,273.502869 
	C232.213501,267.497498 232.213501,261.932739 232.213501,256.367981 
	C232.600204,256.208862 232.986908,256.049744 233.373611,255.890625 
	C238.157913,260.985870 242.942200,266.081146 248.675934,272.187531 
	C248.675934,266.112244 248.675934,261.194794 248.675934,256.277344 
	C249.139862,256.281158 249.603790,256.284943 250.067719,256.288727 
	C250.067719,263.250610 250.067719,270.212463 250.067719,278.199738 
	C245.038559,272.683502 240.470001,267.672516 235.901443,262.661499 
	C235.449554,262.786804 234.997650,262.912109 234.545746,263.037415 
	C234.545746,267.800476 234.545746,272.563507 234.545746,277.326569 
	C233.971146,277.380859 233.396545,277.435150 232.821945,277.489410 
	C232.619110,276.307434 232.416260,275.125458 232.213470,273.502869 
z"/>
<path fill="#1D1D1D" opacity="1.000000" stroke="none" 
	d="
M220.024246,257.072296 
	C224.201202,256.407684 226.065659,259.252838 227.305634,262.353271 
	C229.026520,266.656128 228.630951,271.219360 225.093369,274.237274 
	C223.025772,276.001129 219.594299,276.307220 216.701736,276.912048 
	C214.858597,277.297485 212.698532,277.545654 210.995865,276.951630 
	C206.827087,275.497223 204.887817,272.121857 204.701035,267.763000 
	C204.482010,262.651367 206.304565,258.730957 211.671555,257.096130 
	C212.047562,257.641327 212.060165,257.822388 211.802094,258.233215 
	C207.838272,261.662476 207.387527,265.854858 208.219910,270.250336 
	C209.004929,274.395721 213.834137,278.037079 217.083038,277.096344 
	C221.226517,275.896545 224.069931,273.202087 224.690536,268.862946 
	C225.323395,264.438141 224.907089,260.203094 220.030136,257.749573 
	C219.982712,257.526489 220.024246,257.072296 220.024246,257.072296 
z"/>
<path fill="#161616" opacity="1.000000" stroke="none" 
	d="
M321.852417,266.119385 
	C322.861328,268.156555 323.738892,270.273956 324.919159,272.206482 
	C325.931030,273.863312 327.289246,275.308655 328.702393,277.113251 
	C324.441650,278.569641 323.798401,274.902832 322.095642,273.141052 
	C320.324524,271.308563 318.845276,269.194000 316.197083,267.654907 
	C316.197083,270.859772 316.197083,274.064636 316.197083,277.469238 
	C312.935638,276.131042 312.353699,270.607697 313.585144,256.136169 
	C316.239227,256.136169 319.142914,255.581879 321.676239,256.312195 
	C323.690155,256.892761 326.717407,259.106323 326.658813,260.482574 
	C326.577362,262.393616 324.029602,264.199585 322.043823,265.717010 
	C322.279266,263.427338 324.055267,260.151428 323.550659,259.751221 
	C321.699432,258.283051 319.090271,257.770538 316.476685,256.789520 
	C316.476685,260.692627 316.476685,263.226746 316.476685,265.722534 
	C318.490509,265.871185 320.171448,265.995300 321.852417,266.119385 
z"/>
<path fill="#161616" opacity="1.000000" stroke="none" 
	d="
M297.046692,261.901276 
	C298.079773,259.890350 299.112885,257.879395 300.547455,255.086975 
	C303.905731,262.875397 306.941681,269.916351 309.977631,276.957306 
	C309.600128,277.295074 309.222626,277.632843 308.845154,277.970581 
	C307.846252,276.973877 306.210266,276.115601 305.958435,274.956573 
	C304.850433,269.857239 301.796844,268.556824 296.971130,269.135498 
	C292.284363,269.697540 293.419525,273.642609 292.231354,276.263519 
	C292.109314,276.532715 291.827576,276.729523 292.091858,276.436279 
	C292.824341,273.919189 293.730011,270.806976 295.203064,267.408813 
	C298.020325,267.442688 300.270203,267.762451 303.217773,268.181396 
	C301.883209,265.100830 300.941223,262.926514 300.177704,261.164124 
	C298.757935,261.498383 297.902313,261.699829 297.046692,261.901276 
z"/>
<path fill="#1D1D1D" opacity="1.000000" stroke="none" 
	d="
M185.948273,271.064056 
	C184.266815,276.716095 183.863937,277.041901 180.124115,276.784271 
	C181.021744,275.344360 183.285431,273.190063 182.855240,272.076080 
	C182.107437,270.139648 179.907166,268.469971 177.937073,267.362061 
	C174.034592,265.167389 172.489456,262.271240 174.124252,259.006989 
	C175.598480,256.063354 180.695587,254.650040 183.772354,256.476990 
	C184.367645,256.830475 184.547043,257.884338 185.590073,259.937592 
	C183.704666,258.926727 183.080780,258.293335 182.521957,258.346313 
	C180.503876,258.537537 178.507706,258.959778 176.503250,259.294800 
	C177.325958,261.025879 177.710831,263.332703 179.066132,264.363434 
	C181.579788,266.275116 185.609467,266.370605 185.948273,271.064056 
z"/>
<path fill="#161616" opacity="1.000000" stroke="none" 
	d="
M158.114990,261.962830 
	C159.110474,259.948273 160.105957,257.933716 161.542206,255.027191 
	C164.915680,262.815887 167.941071,269.800903 170.966461,276.785919 
	C170.620499,277.142059 170.274536,277.498230 169.928574,277.854370 
	C168.888870,276.809174 167.225250,275.919159 166.919907,274.691345 
	C165.739609,269.945251 162.877808,268.468018 158.287354,269.115448 
	C157.536133,269.221375 156.613907,268.114807 156.273926,267.357178 
	C159.034256,267.461395 161.291367,267.777069 164.271713,268.193878 
	C162.934250,265.133392 161.985321,262.962036 161.191925,261.146545 
	C159.837845,261.505768 158.976410,261.734314 158.114990,261.962830 
z"/>
<path fill="#1D1D1D" opacity="1.000000" stroke="none" 
	d="
M265.230164,265.980469 
	C265.617615,262.889587 266.005066,259.798676 266.595947,255.085037 
	C270.041107,261.345764 272.808716,266.375183 276.209717,272.555634 
	C276.993347,270.877655 277.523682,269.742065 278.053986,268.606476 
	C278.454254,268.872498 278.854523,269.138519 279.254761,269.404541 
	C278.116760,271.958588 276.978790,274.512665 275.558716,277.699799 
	C272.821472,272.423615 270.406860,267.769348 267.566101,262.293701 
	C267.265167,263.887726 267.135590,264.574066 266.649658,265.618835 
	C265.938934,265.978271 265.584564,265.979370 265.230164,265.980469 
z"/>
<path fill="#1D1D1D" opacity="1.000000" stroke="none" 
	d="
M286.317200,260.666260 
	C287.002502,266.464996 287.639252,271.855225 288.276031,277.245453 
	C287.678406,277.389404 287.080811,277.533356 286.483215,277.677277 
	C283.493195,273.546967 285.325562,268.002502 283.520905,263.115692 
	C282.323151,264.585602 281.195618,265.969360 280.068085,267.353119 
	C279.774872,267.161041 279.481689,266.968964 279.188507,266.776886 
	C281.128937,263.292969 283.069366,259.809052 285.628174,255.214844 
	C285.955566,257.792603 286.112122,259.025177 286.317200,260.666260 
z"/>
<path fill="#2A2A2A" opacity="1.000000" stroke="none" 
	d="
M350.127136,277.597107 
	C349.239990,270.540894 348.748383,263.482788 348.193665,255.519089 
	C350.108673,256.281372 351.367584,256.564758 351.360474,256.811371 
	C351.159485,263.741577 350.830566,270.668091 350.127136,277.597107 
z"/>
<path fill="#040404" opacity="1.000000" stroke="none" 
	d="
M197.966797,257.920349 
	C197.657379,264.496979 197.347946,271.073608 197.038513,277.650238 
	C196.339096,277.660065 195.639664,277.669891 194.940247,277.679688 
	C194.836334,271.344727 194.732437,265.009766 194.359192,258.007385 
	C194.075317,256.977203 194.060760,256.614380 194.046219,256.251587 
	C195.089493,256.213409 196.132767,256.175232 197.538086,256.472473 
	C197.922363,257.178680 197.944580,257.549530 197.966797,257.920349 
z"/>
<path fill="#E9E9E9" opacity="1.000000" stroke="none" 
	d="
M252.266434,219.529633 
	C251.130630,219.506653 250.200012,219.292953 248.685638,219.105469 
	C247.960312,218.981430 247.818726,218.831192 247.677124,218.680954 
	C248.500168,216.059113 249.323227,213.437271 250.256577,210.464050 
	C252.284836,210.641373 254.185577,210.807541 256.421112,211.002975 
	C255.919983,211.963318 255.573151,212.627991 255.006927,213.884979 
	C254.015579,216.097824 253.243591,217.718369 252.266434,219.529633 
z"/>
<path fill="#040404" opacity="1.000000" stroke="none" 
	d="
M336.845459,277.709991 
	C336.247620,272.414642 336.146149,266.979431 335.904877,261.550446 
	C335.842285,260.141632 335.342529,258.752228 335.016815,257.228882 
	C336.021393,257.228882 337.607056,257.228882 338.970459,257.228882 
	C338.656647,258.807312 338.147644,260.428101 338.041626,262.074829 
	C337.709381,267.235443 337.528992,272.405853 336.845459,277.709991 
z"/>
<path fill="#E1E1E1" opacity="1.000000" stroke="none" 
	d="
M157.834076,262.169128 
	C158.976410,261.734314 159.837845,261.505768 161.191925,261.146545 
	C161.985321,262.962036 162.934250,265.133392 164.271713,268.193878 
	C161.291367,267.777069 159.034256,267.461395 156.386475,267.061768 
	C156.514954,265.443634 157.034073,263.909515 157.834076,262.169128 
z"/>
<path fill="#E1E1E1" opacity="1.000000" stroke="none" 
	d="
M297.025513,262.263397 
	C297.902313,261.699829 298.757935,261.498383 300.177704,261.164124 
	C300.941223,262.926514 301.883209,265.100830 303.217773,268.181396 
	C300.270203,267.762451 298.020325,267.442688 295.380341,267.033936 
	C295.661560,265.505127 296.332916,264.065308 297.025513,262.263397 
z"/>
<path fill="#2D2D2D" opacity="1.000000" stroke="none" 
	d="
M265.103577,266.364075 
	C265.584564,265.979370 265.938934,265.978271 266.559143,265.980591 
	C266.431885,269.890564 266.038818,273.797150 265.645752,277.703735 
	C265.010468,277.623230 264.375183,277.542694 263.739899,277.462189 
	C264.152252,273.890686 264.564636,270.319153 265.103577,266.364075 
z"/>
<path fill="#F8F8F8" opacity="1.000000" stroke="none" 
	d="
M219.947495,256.694458 
	C220.024246,257.072296 219.982712,257.526489 219.584259,257.759216 
	C216.814789,257.995758 214.443787,257.999634 212.072769,258.003479 
	C212.060165,257.822388 212.047562,257.641327 212.031921,257.188049 
	C214.443954,254.113480 217.073517,254.117966 219.947495,256.694458 
z"/>
<path fill="#2A2A2A" opacity="1.000000" stroke="none" 
	d="
M198.400604,257.953552 
	C197.944580,257.549530 197.922363,257.178680 197.926086,256.530365 
	C199.921753,256.252869 201.891449,256.252869 203.861145,256.252869 
	C203.883987,256.830841 203.906815,257.408813 203.929657,257.986786 
	C202.231247,257.986786 200.532837,257.986786 198.400604,257.953552 
z"/>
<path fill="#2A2A2A" opacity="1.000000" stroke="none" 
	d="
M193.620575,256.146545 
	C194.060760,256.614380 194.075317,256.977203 194.068268,257.612030 
	C192.045258,257.884064 190.043839,257.884064 188.042419,257.884064 
	C188.011230,257.392548 187.980042,256.901001 187.948853,256.409485 
	C189.697556,256.286835 191.446243,256.164185 193.620575,256.146545 
z"/>
<path fill="#F1F1F1" opacity="1.000000" stroke="none" 
	d="
M284.999939,184.155914 
	C256.893463,184.155716 229.286972,184.155716 201.367645,184.155716 
	C201.367645,178.754517 201.367645,173.532410 201.367645,168.029877 
	C241.059021,168.029877 280.741425,168.029877 320.740295,168.029877 
	C320.740295,173.155106 320.740295,178.380981 320.740295,184.156097 
	C308.995087,184.156097 297.247528,184.156097 284.999939,184.155914 
M242.888184,174.997543 
	C242.255432,173.841324 241.622681,172.685120 240.971420,171.495056 
	C240.121658,174.908127 239.384735,177.868057 238.609772,180.980743 
	C241.917404,181.283325 242.459778,178.515839 242.888184,174.997543 
M230.225906,175.181641 
	C230.680252,176.608841 231.134613,178.036041 231.588959,179.463242 
	C231.912445,179.366348 232.235916,179.269440 232.559402,179.172546 
	C232.559402,176.952545 232.559402,174.732544 232.559402,171.308365 
	C231.317474,173.058228 230.800018,173.787323 230.225906,175.181641 
M236.037262,171.153198 
	C236.191971,171.411713 236.297012,171.805710 236.516937,171.886368 
	C236.696335,171.952118 237.013077,171.643295 237.268921,171.500565 
	C237.012787,171.357452 236.756653,171.214355 236.037262,171.153198 
z"/>
<path fill="#ECECEC" opacity="1.000000" stroke="none" 
	d="
M129.007721,158.086395 
	C143.663513,158.086456 157.823349,158.243774 171.976532,158.005920 
	C177.322891,157.916061 180.830170,160.003464 183.684464,165.553436 
	C181.598282,165.553436 180.088791,165.553436 178.579300,165.553436 
	C159.925125,165.553329 141.268356,165.383469 122.618530,165.668091 
	C117.730629,165.742676 114.633202,164.430618 113.154236,158.967041 
	C118.158745,157.086899 123.434235,158.554550 129.007721,158.086395 
z"/>
<path fill="#ECECEC" opacity="1.000000" stroke="none" 
	d="
M402.278992,165.551346 
	C380.964752,165.552734 360.082458,165.552734 338.588379,165.552734 
	C340.711670,160.954224 343.344482,158.119446 348.031921,158.108139 
	C367.140320,158.062088 386.248901,158.078140 405.357330,158.114380 
	C406.444000,158.116440 407.529938,158.501816 409.078094,158.796799 
	C407.579498,162.081421 407.123291,165.590286 402.278992,165.551346 
z"/>
<path fill="#ECECEC" opacity="1.000000" stroke="none" 
	d="
M197.067352,165.553223 
	C195.747253,165.553131 194.885345,165.411163 194.086548,165.575653 
	C187.891357,166.851379 184.245239,163.850082 181.831024,158.126587 
	C200.389832,158.126587 218.806808,158.037521 237.221649,158.195267 
	C241.326172,158.230438 244.530823,160.210709 245.501053,165.553299 
	C229.365250,165.553299 213.460022,165.553299 197.067352,165.553223 
z"/>
<path fill="#F6F6F6" opacity="1.000000" stroke="none" 
	d="
M174.957977,167.770966 
	C178.975479,168.327225 182.919571,166.501343 187.055847,169.830368 
	C185.102615,170.309128 184.108505,170.710770 183.092178,170.778381 
	C165.824738,171.927094 148.538437,172.840347 131.294830,174.270157 
	C126.188271,174.693573 123.455101,173.081009 122.101768,167.770966 
	C139.684967,167.770966 157.075546,167.770966 174.957977,167.770966 
z"/>
<path fill="#F6F6F6" opacity="1.000000" stroke="none" 
	d="
M339.389618,170.822998 
	C338.002289,170.663879 337.072479,170.528244 336.142670,170.392624 
	C336.036713,170.024582 335.930756,169.656555 335.824799,169.288513 
	C337.095886,168.783569 338.364990,167.844482 339.638397,167.838593 
	C359.613708,167.745972 379.589600,167.773651 399.916473,167.773651 
	C398.699097,172.667480 396.456573,174.740280 391.175079,174.296783 
	C374.089691,172.862091 356.959839,171.956146 339.389618,170.822998 
z"/>
<path fill="#F0F0F0" opacity="1.000000" stroke="none" 
	d="
M158.593796,174.609055 
	C169.204300,174.188934 179.349152,172.495056 189.496033,173.091934 
	C189.530457,173.787567 189.564880,174.483185 189.599304,175.178818 
	C182.416672,176.147049 175.233536,177.111420 168.051544,178.084457 
	C158.659302,179.356949 149.244141,180.486771 139.886551,181.977448 
	C135.388855,182.693954 132.440903,181.710800 131.478149,176.393204 
	C140.393158,175.812393 149.261230,175.234650 158.593796,174.609055 
z"/>
<path fill="#F0F0F0" opacity="1.000000" stroke="none" 
	d="
M389.098999,176.226959 
	C390.612671,180.023315 388.704346,182.519272 384.576935,182.072983 
	C375.833069,181.127533 367.119141,179.901611 358.397064,178.759277 
	C351.156372,177.810974 343.918579,176.839203 336.686829,175.825562 
	C335.294922,175.630463 333.937012,175.192978 332.650665,173.913254 
	C351.422394,173.027344 370.028625,175.464066 389.098999,176.226959 
z"/>
<path fill="#EDEDED" opacity="1.000000" stroke="none" 
	d="
M184.948227,178.039124 
	C187.886703,177.996292 190.399139,177.996292 192.911560,177.996292 
	C192.949371,178.547287 192.987167,179.098297 193.024963,179.649292 
	C181.322617,182.087280 169.626236,184.554504 157.915665,186.952301 
	C150.876816,188.393539 147.679459,187.872528 139.847397,184.104126 
	C155.070633,182.052032 169.796402,180.067001 184.948227,178.039124 
z"/>
<path fill="#EDEDED" opacity="1.000000" stroke="none" 
	d="
M335.370605,177.864563 
	C351.199921,179.953873 366.611359,181.998917 383.455322,184.234055 
	C375.980591,186.606934 370.222595,188.761963 363.384125,186.990280 
	C352.167206,184.084274 340.711731,182.098999 329.356873,179.725418 
	C329.278503,179.213455 329.200165,178.701492 329.121796,178.189529 
	C331.065460,178.066452 333.009094,177.943390 335.370605,177.864563 
z"/>
<path fill="#F5F5F5" opacity="1.000000" stroke="none" 
	d="
M330.435852,203.167892 
	C325.761963,209.168076 322.991455,209.642517 317.402130,205.658936 
	C314.170563,203.355728 310.963043,201.018707 307.736359,198.690887 
	C313.131470,192.615082 313.816772,192.465240 320.791077,195.731140 
	C323.784790,197.133011 326.848938,198.406357 329.730591,200.008698 
	C330.361847,200.359711 330.352539,201.862778 330.435852,203.167892 
z"/>
<path fill="#F5F5F5" opacity="1.000000" stroke="none" 
	d="
M208.150574,203.165771 
	C206.914093,204.050797 205.982559,204.739670 205.039932,205.412964 
	C198.371490,210.176117 193.540192,208.552124 190.865204,200.580750 
	C193.982498,199.114243 197.310104,197.956207 200.192459,196.104980 
	C205.602478,192.630295 210.190887,192.927277 214.433868,198.505951 
	C212.517303,199.933395 210.483841,201.447891 208.150574,203.165771 
z"/>
<path fill="#F1F1F1" opacity="1.000000" stroke="none" 
	d="
M336.304199,188.763611 
	C332.006439,187.349533 328.090027,186.051544 324.173615,184.753555 
	C324.151520,184.207520 324.129425,183.661484 324.107300,183.115448 
	C326.246002,182.799408 328.498444,181.885040 330.504486,182.266495 
	C341.754974,184.405884 352.946045,186.857803 365.318909,189.445984 
	C358.388214,191.714355 352.768616,194.719513 346.153809,191.944138 
	C343.105713,190.665237 339.848145,189.885681 336.304199,188.763611 
z"/>
<path fill="#F1F1F1" opacity="1.000000" stroke="none" 
	d="
M162.010376,191.217865 
	C160.264633,190.649872 158.893921,190.187698 156.726349,189.456848 
	C169.016342,186.886520 180.383453,184.408218 191.806229,182.220520 
	C193.690536,181.859650 195.818771,182.772400 197.834274,183.096542 
	C197.861755,183.709808 197.889252,184.323074 197.916733,184.936340 
	C188.979813,187.653488 180.116562,190.669922 171.059586,192.899368 
	C168.455292,193.540451 165.292267,191.911713 162.010376,191.217865 
z"/>
<path fill="#F3F3F3" opacity="1.000000" stroke="none" 
	d="
M186.208740,198.326752 
	C182.312347,197.196518 178.833832,196.188461 174.116714,194.821472 
	C182.814835,191.993210 190.177292,189.206329 197.770874,187.381073 
	C199.914688,186.865768 202.734970,189.164886 205.244995,190.173157 
	C205.197876,190.844437 205.150757,191.515732 205.103638,192.187012 
	C198.944626,194.274323 192.785629,196.361633 186.208740,198.326752 
z"/>
<path fill="#F3F3F3" opacity="1.000000" stroke="none" 
	d="
M338.310120,197.724915 
	C334.127045,197.222870 330.251740,196.951614 326.617767,195.869781 
	C323.341034,194.894241 320.328522,193.031158 317.195648,191.557724 
	C319.700806,186.811630 323.173584,186.342545 327.892609,188.184082 
	C334.031097,190.579559 340.416595,192.342194 347.774017,194.726639 
	C344.160095,195.875015 341.441559,196.738876 338.310120,197.724915 
z"/>
<path fill="#F1F1F1" opacity="1.000000" stroke="none" 
	d="
M255.349335,208.653336 
	C253.656006,208.447662 252.392548,208.262863 251.127182,208.077789 
	C253.596802,193.070755 255.983597,187.024673 259.766541,186.530685 
	C259.766541,193.635895 259.766541,200.717712 259.766541,208.443588 
	C258.525269,208.515381 257.152252,208.594803 255.349335,208.653336 
z"/>
<path fill="#F0F0F0" opacity="1.000000" stroke="none" 
	d="
M262.137817,187.802322 
	C264.393860,185.369766 265.476868,186.151886 266.159882,188.821396 
	C267.762573,195.085251 269.518555,201.309906 271.372589,208.140259 
	C268.313446,208.396378 265.585327,208.624786 262.116669,208.915207 
	C262.116669,201.751724 262.116669,194.990097 262.137817,187.802322 
z"/>
<path fill="#F0F0F0" opacity="1.000000" stroke="none" 
	d="
M252.880219,191.889862 
	C251.392654,197.370590 249.983871,202.456299 248.436920,208.040817 
	C245.468506,207.444656 242.658661,206.880325 239.762985,206.298752 
	C244.166412,195.153397 250.159348,186.817657 254.061035,186.739136 
	C253.680054,188.383240 253.319534,189.939041 252.880219,191.889862 
z"/>
<path fill="#F1F1F1" opacity="1.000000" stroke="none" 
	d="
M277.342194,196.672791 
	C279.040314,199.562790 280.537079,202.145615 282.014740,204.739273 
	C282.175079,205.020721 282.225159,205.364990 282.485321,206.174820 
	C279.604279,206.798172 276.776001,207.410110 273.631927,208.090378 
	C271.657104,200.754211 269.785156,193.800064 267.876587,186.709961 
	C271.660645,186.812561 271.660645,186.812561 277.342194,196.672791 
z"/>
<path fill="#F1F1F1" opacity="1.000000" stroke="none" 
	d="
M276.387146,190.701477 
	C275.551971,189.271301 274.919128,188.136887 274.250854,186.938934 
	C278.861847,186.163651 285.535614,191.702454 292.952087,202.214645 
	C285.867096,206.624191 285.658142,206.576111 281.564301,199.551514 
	C279.903412,196.701614 278.247620,193.848755 276.387146,190.701477 
z"/>
<path fill="#F5F5F5" opacity="1.000000" stroke="none" 
	d="
M307.549316,212.212692 
	C304.059387,209.383041 300.954468,206.683273 297.699402,203.852966 
	C302.102112,199.870056 305.956177,198.926285 310.333832,203.181473 
	C312.685150,205.467072 315.644592,207.127029 319.316101,209.782837 
	C314.959625,210.762604 311.446960,211.552582 307.549316,212.212692 
z"/>
<path fill="#F1F1F1" opacity="1.000000" stroke="none" 
	d="
M233.005371,197.188141 
	C235.781708,194.359344 238.423904,191.378372 241.389420,188.764145 
	C242.936279,187.400528 245.052475,186.682770 246.911530,185.673279 
	C247.237869,186.056534 247.564209,186.439804 247.890549,186.823059 
	C244.552628,192.586777 241.291107,198.397980 237.777084,204.052246 
	C237.352615,204.735245 235.489990,204.935425 234.422592,204.720444 
	C232.337326,204.300507 230.343002,203.428925 228.592712,202.332397 
	C230.251389,200.343002 231.628372,198.765564 233.005371,197.188141 
z"/>
<path fill="#F3F3F3" opacity="1.000000" stroke="none" 
	d="
M206.323303,207.181183 
	C208.237701,205.824707 210.101089,204.883789 211.437164,203.451096 
	C215.612946,198.973236 219.674866,199.713608 223.857758,203.298248 
	C216.516083,213.300293 215.151260,213.736908 203.422760,209.626144 
	C204.374176,208.803802 205.202591,208.087769 206.323303,207.181183 
z"/>
<path fill="#F0F0F0" opacity="1.000000" stroke="none" 
	d="
M291.619019,215.377182 
	C289.652618,212.756180 287.948608,210.391754 286.170502,207.924515 
	C295.306122,204.037155 295.306122,204.037155 305.132263,214.368271 
	C300.171936,214.841995 296.026642,215.237869 291.619019,215.377182 
z"/>
<path fill="#F0F0F0" opacity="1.000000" stroke="none" 
	d="
M231.422852,214.350983 
	C229.184753,217.647079 226.569382,216.264572 224.088211,215.599518 
	C222.031631,215.048264 220.001450,214.398438 217.489014,213.652618 
	C220.863449,210.578552 223.995956,207.724899 227.420624,204.605103 
	C229.570160,205.375748 232.355118,206.374191 235.817184,207.615417 
	C234.386124,209.849091 233.030792,211.964554 231.422852,214.350983 
z"/>
<path fill="#F5F5F5" opacity="1.000000" stroke="none" 
	d="
M247.666626,210.875214 
	C244.637405,221.791946 244.637405,221.791946 232.213318,217.608459 
	C237.978348,207.765961 237.978348,207.765961 247.666626,210.875214 
z"/>
<path fill="#F3F3F3" opacity="1.000000" stroke="none" 
	d="
M284.163940,219.362534 
	C277.298584,221.081741 276.103180,219.891907 274.581787,210.357986 
	C283.534821,208.075989 283.534821,208.075989 290.103058,217.622726 
	C288.181671,218.175400 286.368164,218.697021 284.163940,219.362534 
z"/>
<path fill="#EDEDED" opacity="1.000000" stroke="none" 
	d="
M282.947479,186.361191 
	C285.556427,187.123291 288.055298,187.564362 290.033752,188.823273 
	C294.316284,191.548264 298.332275,194.692108 302.574860,197.749374 
	C298.386475,201.797836 295.096497,201.730988 291.777710,197.242935 
	C288.970306,193.446426 285.678741,190.007919 282.947479,186.361191 
z"/>
<path fill="#E9E9E9" opacity="1.000000" stroke="none" 
	d="
M224.481186,191.485382 
	C223.667664,192.094559 223.127563,192.473221 222.590958,192.856781 
	C216.559677,197.167877 216.559799,197.168045 210.020828,191.799637 
	C216.392975,188.237473 222.518433,184.804459 230.976227,186.840302 
	C228.603226,188.525375 226.679718,189.891266 224.481186,191.485382 
z"/>
<path fill="#F1F1F1" opacity="1.000000" stroke="none" 
	d="
M228.003265,200.988831 
	C225.257767,200.359650 222.512268,199.730453 219.766754,199.101273 
	C219.587662,198.424133 219.408569,197.746994 219.229477,197.069870 
	C225.566986,193.493286 231.904495,189.916702 238.607452,186.628632 
	C238.974411,187.196548 238.980331,187.475830 238.990631,187.755020 
	C236.339096,190.611633 233.687546,193.468246 230.651276,196.701370 
	C229.512131,198.381531 228.757706,199.685181 228.003265,200.988831 
z"/>
<path fill="#E9E9E9" opacity="1.000000" stroke="none" 
	d="
M309.013855,194.293701 
	C306.455841,196.666840 304.375671,196.760742 301.840424,194.629547 
	C298.611511,191.915207 295.032288,189.617538 291.164795,186.822800 
	C299.457520,184.779282 305.605194,188.217575 312.201141,191.842987 
	C311.070740,192.715118 310.192444,193.392761 309.013855,194.293701 
z"/>
<path fill="#E1E1E1" opacity="1.000000" stroke="none" 
	d="
M270.811768,217.186707 
	C268.742920,215.301636 266.925476,213.668350 264.258087,211.271286 
	C267.404877,210.893265 269.377136,210.656357 271.725922,210.374207 
	C272.771118,213.478592 273.787628,216.497757 275.307953,221.013290 
	C273.127045,219.176636 272.095093,218.307571 270.811768,217.186707 
z"/>
<path fill="#CFCFCF" opacity="1.000000" stroke="none" 
	d="
M209.440826,189.551849 
	C207.379318,189.042892 205.641144,188.339981 203.902969,187.637070 
	C204.023453,187.162796 204.143951,186.688538 204.264450,186.214264 
	C205.998322,186.214264 207.732193,186.214279 209.466064,186.214279 
	C211.031235,186.214279 212.596420,186.214264 214.161591,186.214264 
	C214.257874,186.552353 214.354141,186.890427 214.450424,187.228516 
	C212.888351,187.938309 211.326263,188.648102 209.440826,189.551849 
z"/>
<path fill="#CFCFCF" opacity="1.000000" stroke="none" 
	d="
M315.510498,186.214111 
	C316.564545,186.507263 317.206696,186.800568 317.848816,187.093872 
	C316.432892,188.054230 314.943237,189.885788 313.618073,189.773636 
	C311.557770,189.599274 309.609344,188.102905 307.895599,186.214279 
	C310.296600,186.214279 312.697571,186.214279 315.510498,186.214111 
z"/>
<path fill="#EDEDED" opacity="1.000000" stroke="none" 
	d="
M228.061920,201.242432 
	C228.757706,199.685181 229.512131,198.381531 230.621338,197.042542 
	C231.428207,197.035202 231.880280,197.063202 232.668854,197.139664 
	C231.628372,198.765564 230.251389,200.343002 228.549744,201.963211 
	C228.190262,201.835983 228.155411,201.666000 228.061920,201.242432 
z"/>
<path fill="#EDEDED" opacity="1.000000" stroke="none" 
	d="
M239.212494,187.675598 
	C238.980331,187.475830 238.974411,187.196548 238.977219,186.707672 
	C239.132462,186.864182 239.283401,187.230179 239.212494,187.675598 
z"/>
<path fill="#E9E9E9" opacity="1.000000" stroke="none" 
	d="
M248.292175,219.375946 
	C248.060410,219.412659 247.638367,219.205078 247.446716,218.839233 
	C247.818726,218.831192 247.960312,218.981430 248.292175,219.375946 
z"/>
<path fill="#FFFFFF" opacity="1.000000" stroke="none" 
	d="
M211.802094,258.233215 
	C214.443787,257.999634 216.814789,257.995758 219.631683,257.982300 
	C224.907089,260.203094 225.323395,264.438141 224.690536,268.862946 
	C224.069931,273.202087 221.226517,275.896545 217.083038,277.096344 
	C213.834137,278.037079 209.004929,274.395721 208.219910,270.250336 
	C207.387527,265.854858 207.838272,261.662476 211.802094,258.233215 
z"/>
<path fill="#EDEDED" opacity="1.000000" stroke="none" 
	d="
M321.812775,266.128418 
	C320.171448,265.995300 318.490509,265.871185 316.476685,265.722534 
	C316.476685,263.226746 316.476685,260.692627 316.476685,256.789520 
	C319.090271,257.770538 321.699432,258.283051 323.550659,259.751221 
	C324.055267,260.151428 322.279266,263.427338 321.659119,265.801056 
	C321.768280,266.218628 321.773132,266.137421 321.812775,266.128418 
z"/>
<path fill="#ECECEC" opacity="1.000000" stroke="none" 
	d="
M242.934784,175.362534 
	C242.459778,178.515839 241.917404,181.283325 238.609772,180.980743 
	C239.384735,177.868057 240.121658,174.908127 240.971420,171.495056 
	C241.622681,172.685120 242.255432,173.841324 242.934784,175.362534 
z"/>
<path fill="#ECECEC" opacity="1.000000" stroke="none" 
	d="
M230.254242,174.849030 
	C230.800018,173.787323 231.317474,173.058228 232.559402,171.308365 
	C232.559402,174.732544 232.559402,176.952545 232.559402,179.172546 
	C232.235916,179.269440 231.912445,179.366348 231.588959,179.463242 
	C231.134613,178.036041 230.680252,176.608841 230.254242,174.849030 
z"/>
<path fill="#ECECEC" opacity="1.000000" stroke="none" 
	d="
M236.268890,171.112228 
	C236.756653,171.214355 237.012787,171.357452 237.268921,171.500580 
	C237.013077,171.643295 236.696335,171.952118 236.516937,171.886368 
	C236.297012,171.805710 236.191971,171.411713 236.268890,171.112228 
z"/>
</svg>